<svg version="1.2" xmlns="http://www.w3.org/2000/svg" viewBox="0 0 816 797" width="816" height="797">
	<style>
		.s0 { fill: #fcfcfe } 
	</style>
	<path id="Path 0" fill-rule="evenodd" class="s0" d="m387.5 0.09c1.1-0.02 11.68 3.11 23.5 6.98 11.82 3.86 32.98 10.2 47 14.07 14.02 3.87 40.57 11.26 59 16.41 18.42 5.15 40.7 11.65 49.5 14.42 8.8 2.78 21.85 7.13 29 9.66 7.15 2.53 19.52 7.21 27.5 10.39 7.98 3.18 20.35 8.47 27.5 11.75 7.15 3.28 19.52 9.21 27.5 13.19 7.98 3.97 22.72 11.57 32.78 16.88 10.05 5.31 18.26 10 18.25 10.41-0.02 0.41-1.94 1.81-4.28 3.1-2.34 1.29-14.83 8.33-27.75 15.65-12.92 7.32-30.7 17.59-39.5 22.81-8.8 5.23-23.42 14.1-32.5 19.71-9.08 5.61-24.94 15.44-54 33.48l-4.25-1.39c-2.34-0.76-9.2-2.78-15.25-4.48-6.05-1.7-17.41-4.45-25.25-6.11-7.84-1.66-21.56-4.13-30.5-5.49-8.94-1.36-23.45-3.18-32.25-4.03-8.8-0.86-23.65-1.96-33-2.46-10.04-0.54-26.62-0.55-40.5-0.03-12.93 0.49-30.02 1.62-38 2.51-7.98 0.89-23.27 3.36-34 5.48-10.73 2.13-26.48 5.9-35 8.37-8.52 2.47-22.48 7.28-31 10.69-8.53 3.4-19.1 7.99-23.5 10.19-4.4 2.2-8.22 4.42-8.5 4.93-0.28 0.51-2.53-0.03-9.5-3.34l-0.07-26.67c-0.04-14.67-0.64-32.74-1.32-40.17-0.69-7.43-2.15-19.8-3.24-27.5-1.1-7.7-3.34-20.52-4.98-28.5-1.63-7.97-3.8-17.82-4.81-21.88-1.01-4.06-1.78-7.5-1.71-7.63 0.07-0.14 2.6-1.82 5.63-3.75 3.03-1.93 11.57-6.68 19-10.57 7.43-3.88 19.35-9.58 26.5-12.67 7.15-3.08 22-9 33-13.16 11-4.15 28.32-10.48 38.5-14.05 10.18-3.58 26.82-9.79 37-13.8 10.18-4.01 21.43-8.65 25-10.32 3.57-1.66 7.4-3.05 8.5-3.08zm-208.36 91.77c0.39 0.35 1.85 5.14 3.23 10.64 1.38 5.5 3.64 16.08 5.03 23.5 1.39 7.43 3.2 18.68 4.01 25 0.81 6.32 2.01 18.7 2.66 27.5 0.71 9.6 0.95 25 0.62 38.5-0.31 12.38-1.28 28.35-2.15 35.5-0.87 7.15-2.59 18.69-6.04 38.27l3.34 2.87c2.08 1.78 4.15 5.06 5.5 8.73 2.07 5.61 2.51 6.07 10.16 10.58 4.4 2.6 10.25 5.96 13 7.48 2.75 1.52 5.32 2.38 5.72 1.91 0.39-0.46 2.06-8.71 3.71-18.34 1.64-9.62 3.68-23.57 4.53-31 0.85-7.43 1.54-15.19 1.54-17.25 0-3.41 0.39-3.94 4.25-5.88 2.34-1.18 9.65-4.28 16.25-6.91 6.6-2.62 17.85-6.59 25-8.81 7.15-2.23 15.7-4.73 19-5.57 3.3-0.83 12.52-2.85 20.5-4.49 7.98-1.63 22.15-3.99 31.5-5.24 15.12-2.03 21.21-2.29 55-2.32 24.89-0.02 42.14 0.42 50 1.29 6.6 0.72 18.52 2.21 26.5 3.3 7.98 1.09 22.38 3.56 32 5.48 9.63 1.93 22.9 4.87 29.5 6.53 6.6 1.67 12.11 3.11 12.24 3.2 0.13 0.09 0.93 6.7 1.77 14.67 0.84 7.98 2.65 21.48 4.01 30 1.36 8.52 3.72 20.99 5.23 27.71 1.51 6.72 2.52 12.4 2.25 12.63-0.27 0.24-3.2 0.04-6.5-0.44-3.3-0.47-19.73-2.43-36.5-4.35-16.77-1.92-37.25-3.93-45.5-4.47-8.25-0.54-22.87-1.29-32.5-1.65-9.62-0.37-29.87-0.15-45 0.48-15.12 0.62-33.57 1.58-41 2.13-7.42 0.55-23.62 2.12-36 3.5-12.37 1.38-30.82 3.66-41 5.06-10.17 1.4-25.02 3.64-33 4.96-7.97 1.33-14.87 2.76-15.31 3.18-0.45 0.42 4.05 3.63 10 7.13 5.94 3.51 25.89 15.05 44.31 25.64 18.43 10.6 38 21.84 43.5 24.99 5.5 3.14 15.18 8.76 21.5 12.48 6.32 3.72 13.75 8.03 16.5 9.59 2.75 1.56 5.33 3.31 5.73 3.88 0.41 0.58 0.75 17.48 0.77 37.55 0.03 27.98-0.26 36.88-1.23 38.13-0.7 0.89-9.14 6.13-18.77 11.64-9.62 5.5-25.82 14.84-36 20.74-10.18 5.91-20.3 11.94-22.5 13.4-2.2 1.47-4 3.28-4 4.04 0 0.75 2.48 3.04 5.5 5.08 3.02 2.04 13.15 8.12 22.5 13.5 9.35 5.39 20.82 12.02 25.5 14.74 4.68 2.72 12.26 7.04 16.85 9.59 4.59 2.55 9.11 5.31 10.05 6.14 1.57 1.38 1.75 7.2 2.25 72.5 0.29 39.05 0.27 82.79-0.06 97.21-0.57 25.11-0.67 26.22-2.59 26.72-1.1 0.29-6.27 0.09-11.5-0.43-5.23-0.53-13.77-1.62-19-2.43-5.23-0.81-13.55-2.2-18.5-3.1-4.95-0.89-11.02-2.01-13.5-2.48-2.48-0.47-5.96-1.33-7.75-1.92-2.07-0.68-3.64-2.07-4.32-3.82-0.72-1.87-1-24.05-0.68-135.75l-3.07-2.5c-1.69-1.37-11.31-7.2-21.38-12.95-10.06-5.75-23.25-13.21-29.3-16.59-6.05-3.37-15.5-8.75-21-11.95-5.5-3.2-14.27-8.31-19.5-11.35-5.22-3.04-17.6-10.24-27.5-16-9.9-5.75-24.52-14.23-32.5-18.85-7.97-4.61-15.62-8.64-17-8.94-1.37-0.31-2.95-0.07-3.5 0.52-0.67 0.72-0.41 2.3 0.81 4.84 0.99 2.07 4.59 8.53 8 14.35 3.4 5.82 7.54 12.73 9.19 15.35 1.65 2.61 6.82 9.62 11.5 15.57 4.68 5.94 11.02 13.89 14.1 17.65 3.08 3.77 10.73 11.76 17 17.77 6.27 6.01 16.35 14.84 22.4 19.62 6.17 4.88 11.56 9.97 12.28 11.58 0.98 2.22 1.21 12.44 1 44.55-0.16 22.91-0.64 42.04-1.07 42.5-0.44 0.46-2.46 0.19-4.5-0.59-2.04-0.78-7.98-4.12-13.21-7.41-5.22-3.29-13.55-8.77-18.5-12.17-4.95-3.4-13.95-9.94-20-14.52-6.05-4.58-15.95-12.7-22-18.04-6.05-5.34-15.27-14.16-20.5-19.6-5.22-5.44-11.79-12.58-14.59-15.87-2.8-3.28-8.66-10.7-13.01-16.47-4.35-5.77-11.11-15.23-15.02-21-3.91-5.77-9.96-15.45-13.44-21.5-3.48-6.05-9.56-17.75-13.52-26-3.96-8.25-8.88-19.27-10.93-24.5-2.05-5.23-5.52-14.9-7.69-21.5-2.18-6.6-4.56-14.48-5.29-17.5-0.73-3.02-2.05-8.65-2.94-12.5-0.89-3.85-2.48-11.5-3.52-17-1.05-5.5-2.38-12.92-2.96-16.5-0.58-3.57-1.63-11.9-2.32-18.5-0.7-6.61-1.25-23.69-1.23-38 0.02-17.78 0.57-30.58 1.72-40.5 0.93-7.98 2.36-18.32 3.18-23 0.82-4.67 1.93-10.52 2.45-13 0.53-2.48 2.3-9.9 3.93-16.5 1.64-6.6 3.97-15.15 5.18-19 1.22-3.85 4.92-14.2 8.23-23 3.31-8.8 8.21-20.61 10.89-26.25 2.99-6.28 5.46-10.25 6.38-10.25 0.83 0 2.29 0.42 3.25 0.94 0.96 0.52 6.25 3.59 11.75 6.83 5.5 3.24 13.83 8.15 18.5 10.92 4.68 2.77 13.23 7.76 19 11.09 5.78 3.32 11.06 6.76 11.75 7.63 1.04 1.32 0.24 3.99-4.71 15.84-3.28 7.84-6.86 16.95-7.94 20.25-1.09 3.3-3.15 10.05-4.6 15-1.44 4.95-3.95 15.52-5.57 23.5-1.62 7.98-2.94 16.08-2.94 18 0.01 1.93-0.45 5.08-1.01 7-0.55 1.93-1.31 13.85-1.68 26.5-0.56 19.39-0.44 23.15 0.77 23.93 1.08 0.71 3.34-1.12 9.27-7.5 4.31-4.64 11.75-12.93 16.53-18.43 4.78-5.5 11.89-14.27 15.79-19.5 5.06-6.78 8.35-12.55 15.84-30.78l-2.82-2.36c-1.81-1.51-3.3-4.17-4.14-7.36-0.86-3.28-1.05-6.72-0.54-10 0.42-2.75 2.01-7.48 3.53-10.5 1.52-3.02 5.4-8.09 8.62-11.25 3.22-3.16 6.64-5.97 7.6-6.23 1.36-0.37 2.26-3.1 4.03-12.25 1.25-6.47 2.91-16.5 3.69-22.27 0.78-5.77 1.96-17.25 2.62-25.5 0.74-9.26 0.97-23.04 0.6-36-0.33-11.55-1.31-27.07-2.18-34.5-0.86-7.42-2.68-19.57-4.03-27-1.35-7.42-3.52-18-7.19-33.5l8.06-5.14c4.43-2.82 8.39-4.85 8.79-4.5zm-9.51 258.18c-2.12 5.75-4.3 13.16-4.84 16.46-0.53 3.3-2.07 12.52-3.42 20.5-1.35 7.98-3.9 20.92-5.66 28.77l-3.21 14.27c-17.83-0.04-18.5-0.19-18.5-2.04 0-1.4-0.68-2.01-2.25-2.03-1.24-0.02-3.6 0.98-5.25 2.23-2.24 1.7-4.58 2.34-9.25 2.54-5.67 0.24-6.25 0.07-6.25-1.74 0-1.39-0.68-2.01-2.25-2.04-1.24-0.03-2.82 0.53-3.51 1.25-1.02 1.04-1.02 1.51 0 2.42 0.69 0.63 10.49 6.41 21.76 12.86 11.28 6.45 24.55 14.1 29.5 16.99 4.95 2.89 13.73 7.96 19.5 11.25 5.78 3.3 16.8 9.66 24.5 14.13 7.7 4.47 14.45 8.14 15 8.15 0.55 0.01 7.3-3.73 15-8.32 7.7-4.59 19.4-11.41 26-15.16 6.6-3.75 15.94-9.11 20.75-11.92 4.82-2.81 8.98-5.79 9.26-6.61 0.27-0.83-0.07-2.1-0.76-2.84-0.69-0.74-3.05-2.36-5.25-3.61-2.2-1.25-12.32-6.97-22.5-12.72-10.18-5.75-24.57-13.99-32-18.31-7.43-4.31-17.55-10.18-22.5-13.04-4.95-2.85-13.24-7.62-18.42-10.58-7.67-4.4-9.57-5.96-10.22-8.4-0.44-1.65-0.35-5.93 0.21-9.5 0.56-3.58 1.39-8.52 1.84-11 0.46-2.48 2.13-9.11 3.71-14.76 1.97-7.01 2.55-10.55 1.84-11.2-0.67-0.62-2.44-0.16-5 1.29-3.63 2.05-4.29 3.13-7.83 12.71zm-21.52-237.32c0.39 0.43 1.86 6.18 3.28 12.78 1.42 6.6 3.46 17.62 4.54 24.5 1.08 6.87 2.43 18.35 3.01 25.5 0.58 7.15 1.17 17.61 1.31 23.25 0.14 5.64-0.09 10.25-0.5 10.25-0.41 0-20.57-9.56-44.79-21.25-24.22-11.69-43.87-21.7-43.65-22.25 0.21-0.55 8.67-6.81 18.79-13.91 10.12-7.1 27.16-18.92 37.86-26.28 10.7-7.35 19.77-13.02 20.15-12.59zm608.39 116.31c1.53-0.09 2.86 1.62 5.64 7.18 2 4.01 5.31 11.34 7.35 16.29 2.04 4.95 6.08 15.75 8.96 24 2.89 8.25 5.97 17.7 6.85 21 0.88 3.3 2.59 9.82 3.79 14.5 1.21 4.67 2.8 11.65 3.54 15.5 0.74 3.85 2.04 12.17 2.89 18.5 0.85 6.32 2.09 16 2.76 21.5 0.68 5.58 1.18 20.6 1.13 34-0.05 13.2-0.62 29.17-1.26 35.5-0.64 6.32-1.38 12.17-1.64 13-0.25 0.82-0.92 5.1-1.47 9.5-0.55 4.4-1.62 11.37-2.37 15.5-0.76 4.12-3.43 15.37-5.95 25-2.52 9.62-6.67 23.35-9.23 30.5-2.55 7.15-7.51 19.3-11.01 27-3.5 7.7-9.38 19.62-13.07 26.5-3.68 6.87-9.86 17.45-13.73 23.5-3.87 6.05-8.87 13.42-11.11 16.38-2.24 2.96-4.73 6.33-5.53 7.5-0.8 1.16-4.69 6.17-8.63 11.12-3.95 4.95-10.9 13.05-15.44 18-4.54 4.95-13.48 13.89-19.86 19.86-6.39 5.98-15.66 14.1-20.61 18.05-4.95 3.96-10.8 8.58-13 10.29-2.2 1.7-6.92 5.15-10.5 7.68-3.58 2.52-11.33 7.63-17.22 11.35-5.9 3.72-12.88 8-15.5 9.5-2.63 1.5-5.57 2.73-6.53 2.75-1.01 0.01-1.95-0.93-2.24-2.23-0.26-1.24-0.49-20.59-0.5-43 0-22.41 0.38-41.54 0.86-42.5 0.48-0.96 6.21-6.09 12.75-11.39 6.53-5.31 18.04-15.88 25.58-23.5 7.53-7.62 16.78-17.69 20.55-22.36 3.78-4.67 9.35-11.88 12.38-16 3.03-4.13 7.98-11.55 11.01-16.5 3.03-4.95 7.38-12.49 9.68-16.75 2.3-4.26 3.96-8.42 3.68-9.25-0.27-0.83-1.29-1.51-2.25-1.52-0.96-0.01-5.35 1.95-9.75 4.35-4.4 2.39-13.62 7.62-20.5 11.62-6.87 3.99-15.65 9.23-19.5 11.63-3.85 2.41-7.34 4.39-7.75 4.4-0.41 0.01-1.99 0.86-3.5 1.89-1.51 1.03-11.97 7.19-23.25 13.67-11.27 6.49-30.62 17.53-43 24.55-12.37 7.01-26.31 14.92-30.96 17.58-4.66 2.66-9.94 6.07-15.04 10.33l-0.01 66.75c-0.01 36.71-0.35 67.78-0.75 69.04-0.43 1.32-2 2.69-3.74 3.24-1.65 0.52-5.25 1.42-8 1.99-2.75 0.58-8.82 1.71-13.5 2.52-4.67 0.81-12.77 2.15-18 2.98-5.22 0.84-13.77 1.95-19 2.48-5.22 0.52-10.4 0.74-11.5 0.47-1.1-0.27-2.33-1.5-2.74-2.73-0.4-1.23-0.76-44.54-0.79-96.24-0.05-88.94 0.04-94.12 1.74-96.19 0.98-1.21 8.77-6.11 17.29-10.9 8.53-4.79 17.08-9.71 19-10.94 1.93-1.23 6.88-4.13 11-6.45 4.13-2.32 13.24-7.66 20.26-11.87 7.01-4.21 12.97-8.44 13.25-9.4 0.27-0.96 0.32-2.09 0.11-2.5-0.21-0.41-3.92-2.83-8.25-5.37-4.33-2.54-12.82-7.46-18.87-10.94-6.05-3.47-14.82-8.55-19.5-11.28-4.67-2.74-13.9-8.06-20.5-11.84-6.6-3.77-12.67-7.54-13.5-8.37-1.26-1.28-1.55-7.05-1.8-36.73-0.16-19.37-0.08-36.12 0.18-37.22 0.28-1.2 3.78-3.95 8.8-6.91 4.57-2.7 11.92-7.03 16.32-9.62 4.4-2.6 11.38-6.61 15.5-8.91 4.13-2.3 9.75-5.57 12.5-7.26 2.75-1.68 8.38-4.95 12.5-7.26 4.13-2.3 16.28-9.29 27-15.52 10.73-6.23 22.42-12.99 26-15.01 3.58-2.02 10.33-5.92 15-8.66 4.67-2.73 17.5-10.23 28.5-16.64 11-6.42 20.67-11.7 21.5-11.73 0.88-0.03 2.62 2.35 4.19 5.73 1.48 3.19 4.05 9.84 5.72 14.79 1.66 4.95 3.44 11.02 3.95 13.5 0.52 2.47 1.91 8.32 3.11 13 1.2 4.67 2.64 11.65 3.21 15.5 0.58 3.85 1.05 8.35 1.05 10 0 2.14-0.88 3.72-3.06 5.5-1.68 1.37-8.59 5.61-15.36 9.4-6.77 3.8-15.91 9.02-20.31 11.6-4.4 2.58-15.42 8.97-24.5 14.19-9.08 5.22-22.35 12.77-29.5 16.77-7.15 4.01-14.46 8.24-16.24 9.41-1.79 1.17-3.25 2.92-3.25 3.88-0.01 1.02 1.97 2.95 4.74 4.64 2.61 1.58 11.5 6.72 19.75 11.41 8.25 4.69 18.83 10.76 23.5 13.49 4.67 2.72 11.65 6.82 15.5 9.09 3.85 2.27 7.34 4.13 7.75 4.12 0.41 0 6.71-3.43 14-7.62 7.29-4.19 22.02-12.68 32.75-18.85 10.73-6.17 23.55-13.59 28.5-16.48 4.95-2.89 14.63-8.41 21.5-12.27 6.88-3.86 14.98-8.65 18-10.65 5.45-3.6 5.51-3.69 6.14-9.63 0.35-3.3 0.69-10.28 0.75-15.5 0.05-5.23-0.56-17.38-1.37-27-0.81-9.63-1.9-19.75-2.43-22.5-0.52-2.75-1.5-8.15-2.16-12-0.67-3.85-1.83-9.48-2.59-12.5-0.76-3.03-2.1-7.98-2.98-11-0.88-3.03-2.63-8.65-3.9-12.5-1.26-3.85-3.41-9.93-4.78-13.5-1.37-3.58-4.12-10.1-6.11-14.5-1.99-4.4-3.61-8.68-3.58-9.5 0.02-0.83 2.84-3.26 6.27-5.41 3.43-2.16 8.27-5 10.74-6.33 2.48-1.33 9.9-5.61 16.5-9.51 6.6-3.91 15.83-9.47 20.5-12.36 4.67-2.89 9.4-5.3 10.5-5.36z"/>
</svg>